<svg xmlns="http://www.w3.org/2000/svg" width="18" height="20" viewBox="0 0 18 20"><g><g><g/><g><path fill="#fff" d="M5.747 2.417a1.083 1.083 0 1 0 0 2.166 1.083 1.083 0 0 0 0-2.166zm-3.065 0a3.251 3.251 0 0 1 6.13 0h7.768a1.083 1.083 0 0 1 0 2.166H8.812a3.251 3.251 0 0 1-6.13 0H1.413a1.083 1.083 0 0 1 0-2.166zm9.565 6.5a1.083 1.083 0 1 0 0 2.166 1.083 1.083 0 0 0 0-2.166zm-3.065 0a3.251 3.251 0 0 1 6.13 0h1.268a1.083 1.083 0 0 1 0 2.166h-1.268a3.251 3.251 0 0 1-6.13 0H1.413a1.083 1.083 0 1 1 0-2.166zm-3.435 6.5a1.083 1.083 0 1 0 0 2.166 1.083 1.083 0 0 0 0-2.166zm-3.065 0a3.251 3.251 0 0 1 6.13 0h7.768a1.083 1.083 0 1 1 0 2.166H8.812a3.251 3.251 0 0 1-6.13 0H1.413a1.083 1.083 0 1 1 0-2.166z"/></g></g></g></svg>