<svg width="80" height="55" viewBox="0 0 80 55" fill="none" xmlns="http://www.w3.org/2000/svg">
<g clip-path="url(#clip0)">
<path d="M22.1624 32.317C22.6656 30.9954 22.9195 29.5917 22.9113 28.1772C22.9319 27.0259 22.5392 25.9054 21.8048 25.0197C21.0981 24.2103 20.0295 23.7045 18.5991 23.5021C17.1687 23.2998 15.3051 23.5344 13.008 24.2061C11.8609 24.5434 11.0574 24.4689 10.5974 23.9827C10.1431 23.4979 9.94115 22.7728 10.0043 21.8116C10.1104 20.6638 10.4091 19.5422 10.8877 18.4939C11.2797 17.575 11.7483 16.6908 12.2886 15.8508C12.5074 15.5051 12.7388 15.1636 12.987 14.8221C13.853 13.6257 14.8634 12.541 15.995 11.593C17.0451 10.6892 18.2715 10.0144 19.5962 9.61163C20.4376 9.35869 21.0265 9.33341 21.321 9.52732C21.6155 9.72124 21.6955 10.0585 21.565 10.5391C21.2343 11.4516 20.7039 12.2784 20.0127 12.9588C19.4994 13.5279 18.8768 13.9621 18.3299 14.4975C18.0639 14.7661 17.8575 15.0879 17.7241 15.4418C17.5906 15.7508 17.5256 16.085 17.5333 16.4215C17.5411 16.7581 17.6215 17.0889 17.769 17.3914C17.9165 17.6938 18.1276 17.9606 18.3879 18.1735C18.6481 18.3864 18.9512 18.5403 19.2764 18.6246C21.1359 19.1769 22.3349 17.5117 23.2352 16.1627C23.9793 15.0499 24.5469 13.8283 24.918 12.5415C25.2604 11.4856 25.3284 10.3597 25.1157 9.27016C25.0129 8.81492 24.811 8.38805 24.5245 8.02004C24.2379 7.65203 23.8738 7.35197 23.4582 7.14128C22.5747 6.66492 21.2748 6.59746 19.5667 6.95157C17.6012 7.34565 15.7025 8.02148 13.9294 8.95821C12.2794 9.82402 10.7421 10.8902 9.35217 12.1326C8.079 13.2712 6.94884 14.5608 5.98659 15.973C5.13897 17.2018 4.46243 18.5406 3.97565 19.9525C3.56406 21.1053 3.39782 22.3317 3.48764 23.5527C3.55183 24.5703 3.98409 25.5295 4.70345 26.2507C5.55677 27.0095 6.63647 27.4645 7.77455 27.5449C9.11798 27.7135 10.8008 27.4999 12.8229 26.9041C14.0317 26.55 14.8731 26.6807 15.3471 27.2962C15.8211 27.9116 15.9908 28.7997 15.8562 29.9604C15.6625 31.3324 15.2743 32.6696 14.7035 33.9315C14.0522 35.4497 13.2532 36.8999 12.3181 38.261C11.3839 39.6383 10.2925 40.9017 9.06609 42.0255C8.01589 43.0408 6.74612 43.7996 5.35554 44.243C4.51414 44.4917 3.9462 44.4495 3.69799 44.1081C3.44978 43.7666 3.41611 43.2649 3.60963 42.6073C3.87554 41.7828 4.25503 40.9996 4.73711 40.2803C4.92643 39.9767 5.13257 39.6816 5.34292 39.3866C5.65424 38.965 5.995 38.5434 6.32314 38.1219L6.85322 37.46L7.16454 37.1228C7.21081 37.068 7.40854 36.8867 7.40854 36.8192L8.28781 35.7148C8.49979 35.4317 8.63723 35.0997 8.68746 34.7494C8.76709 34.3402 8.73872 33.9173 8.60517 33.5224C8.47161 33.1276 8.23751 32.7746 7.926 32.4982C7.68542 32.2784 7.39718 32.1175 7.084 32.0283C6.77082 31.939 6.44123 31.9238 6.1212 31.9839C5.25124 32.2247 4.48053 32.7371 3.92096 33.4467C3.35777 34.1348 2.85392 34.8696 2.41485 35.6431C1.59548 36.9834 0.949445 38.4226 0.492269 39.9262C0.0792434 41.1948 -0.0640653 42.536 0.0715703 43.8635C0.116511 44.3861 0.274056 44.8927 0.533352 45.3483C0.792649 45.8039 1.14751 46.1977 1.57345 46.5025C2.41485 47.1096 3.7106 47.236 5.42284 46.8819C7.43796 46.4699 9.37677 45.746 11.1696 44.7362C12.9138 43.7551 14.5351 42.5692 15.9992 41.2035C17.4165 39.8951 18.6862 38.4348 19.7855 36.8488C20.7683 35.4444 21.5711 33.9219 22.175 32.317" fill="#231F20"/>
<path d="M52.6882 7.61324C53.088 7.88788 53.5477 8.06225 54.0287 8.12168C54.5097 8.1811 54.9979 8.12383 55.4522 7.9547C55.9927 7.79424 56.501 7.54029 56.9541 7.20432C57.4212 6.8647 57.8377 6.46015 58.191 6.00287C58.5421 5.5504 58.8255 5.0491 59.0324 4.51476C59.2332 4.00602 59.3374 3.46413 59.3395 2.91703C59.3714 2.44704 59.2826 1.97671 59.0815 1.55089C58.8804 1.12507 58.5739 0.757974 58.191 0.484625C57.7909 0.221234 57.3352 0.0547825 56.8598 -0.00155795C56.3845 -0.0578984 55.9026 -0.00257656 55.4522 0.160027C54.3446 0.487214 53.374 1.16818 52.6882 2.09921C51.9711 2.97318 51.5734 4.06631 51.5608 5.19768C51.533 5.66257 51.6216 6.12703 51.8185 6.54889C52.0154 6.97074 52.3144 7.33661 52.6882 7.61324Z" fill="#F04B24"/>
<path d="M79.9454 14.5985C79.8276 14.177 79.613 13.9746 79.3059 13.9451C78.894 13.9623 78.5048 14.1392 78.2205 14.4384C77.7516 14.8869 77.4029 15.4465 77.2066 16.0656C76.8322 16.9603 76.3964 17.828 75.9025 18.6624C75.3154 19.6751 74.6648 20.6495 73.9546 21.5796C73.2725 22.4825 72.5184 23.3284 71.6997 24.109C71.0763 24.7498 70.3329 25.2613 69.5121 25.614C69.0703 25.7742 68.9147 25.5592 69.0493 24.9774C69.2764 24.1399 69.5879 23.3277 69.979 22.5534C70.4628 21.5248 71.0518 20.3529 71.746 19.0249C72.4401 17.697 73.1216 16.3944 73.8032 15.1002C74.4847 13.806 75.0653 12.6214 75.6122 11.5338C76.0294 10.7389 76.3703 9.90609 76.6303 9.04658C76.9542 7.78189 76.3694 6.66476 75.4818 5.8132C74.2912 4.66234 72.8187 5.21458 71.6955 6.16309C71.2748 6.52142 70.0842 7.5416 67.3581 11.2218C65.1157 14.2529 62.0489 18.1734 62.0489 18.1734C62.0489 18.1734 62.0489 18.1354 62.0489 18.1228L62.6 16.8244C62.9085 16.0965 63.2142 15.3672 63.5171 14.6365C63.6896 14.2149 63.8621 13.7934 64.0304 13.3718C64.1439 13.0851 64.9811 10.8129 64.8465 10.0288C64.6488 8.86953 62.9618 8.82737 61.9353 8.98334C61.7056 9.03153 61.4804 9.09923 61.2621 9.1857C60.8623 9.30752 60.4964 9.52106 60.1933 9.80938C59.8902 10.0977 59.6584 10.4529 59.5163 10.8467C59.4532 10.9984 59.3354 11.3441 59.1755 11.8078C58.0901 14.8768 54.8086 24.0668 54.451 24.8762C54.0303 25.8332 53.6896 27.0178 53.1595 27.9199C52.7403 28.6836 52.2486 29.405 51.6913 30.0741C51.1933 30.6953 50.5543 31.1882 49.8276 31.5116C49.4069 31.6718 49.247 31.461 49.348 30.8877C49.521 30.0658 49.7804 29.2645 50.1221 28.4974C50.5428 27.4815 54.9054 15.7115 55.1031 15.0075C55.3009 14.3035 55.7804 13.2706 55.4229 12.5919C55.2975 12.3165 55.1006 12.08 54.8526 11.9072C54.6046 11.7343 54.3148 11.6316 54.0135 11.6097C53.1731 11.4685 52.3098 11.5784 51.5314 11.9258C51.1729 12.0267 50.8444 12.2139 50.5746 12.471C50.3047 12.7282 50.1017 13.0476 49.9832 13.4013C49.1755 15.6272 48.5402 17.3008 48.048 18.6329C47.0299 21.1201 46.0539 23.582 45.8983 23.9277C45.3093 25.2851 44.6151 27.0641 43.82 28.1433C42.9157 29.3738 41.9409 30.5505 40.9004 31.6676C40.1707 32.4236 39.3721 33.1095 38.515 33.7164C37.8864 34.1689 37.2107 34.5519 36.4999 34.8588C37.8298 33.7694 38.9861 32.4828 39.9285 31.0437C40.6984 29.8633 41.422 28.6492 42.0825 27.4056C42.7506 26.1581 43.3367 24.8682 43.8368 23.5441C44.1948 22.5965 44.4845 21.6245 44.7035 20.6353C45.0611 18.9912 45.3303 17.2839 44.6656 15.6777C44.4677 15.1643 44.1051 14.7313 43.6349 14.4468C43.1234 14.1601 42.5333 14.0463 41.9521 14.1222C41.297 14.1661 40.6785 14.4409 40.2062 14.8979C38.853 16.2438 37.6106 17.6973 36.4914 19.2442C35.1662 21.0358 33.2899 23.346 33.2899 23.346C33.3488 23.2153 35.4271 18.4263 35.629 17.8657C35.8089 17.4836 35.8433 17.0488 35.7258 16.6431C35.5932 16.297 35.3546 16.0018 35.0442 15.8C34.4858 15.4969 33.8513 15.3636 33.2184 15.4164C32.589 15.4092 31.9671 15.5538 31.4052 15.8379C30.2861 16.4619 29.7771 17.7223 29.348 18.89C28.2626 21.8789 27.4759 23.6748 26.6765 25.6055C25.8772 27.5363 25.0358 29.6694 24.1524 32.0006C23.2689 34.3319 22.3938 36.6968 21.5651 39.0913C20.7363 41.4858 20.0211 43.8212 19.3985 46.085C18.8396 48.0914 18.418 50.1337 18.1364 52.1977C18.048 52.7162 17.9597 53.6647 18.5276 53.9598C18.9483 54.1874 19.3438 54.2507 19.8192 53.5719C20.0884 53.1841 21.5398 49.487 22.4569 47.063C23.3741 44.639 25.12 40.7143 26.1801 38.2777C26.7411 37.2266 27.3973 36.0603 28.149 34.7787C28.902 33.514 29.6887 32.203 30.5133 30.8961C31.3379 29.5893 32.1961 28.3035 33.0375 27.0346C33.8789 25.7657 34.7203 24.6022 35.4902 23.5483C36.26 22.4944 36.9752 21.5923 37.5937 20.8503C38.0304 20.2883 38.5365 19.784 39.0998 19.3495C39.0409 19.7205 38.9231 20.3824 38.7464 21.3351C38.5697 22.2878 36.8154 30.4619 33.1006 34.4878C32.5755 35.0675 32.0027 35.602 31.3884 36.0856C29.6467 37.4219 28.7716 37.8477 28.0691 38.1133C27.9147 38.1728 27.7804 38.2752 27.682 38.4084C27.3959 38.7835 27.4254 39.5339 27.9597 39.673C28.8784 39.8357 29.8214 39.7969 30.7237 39.5592C31.2201 39.4538 31.7165 39.34 32.2087 39.2135C32.8082 39.0702 33.3983 38.89 33.9757 38.6739C35.1183 38.2464 36.2338 37.7495 37.316 37.1858C39.7636 35.8044 41.9471 33.9988 43.7653 31.8531C44.622 30.8715 45.4159 29.8366 46.1423 28.7546C46.0515 29.5368 46.0079 30.3237 46.0118 31.1111C46.0118 32.477 46.26 33.5351 46.7228 34.2771C47.1856 35.019 47.9849 35.2171 49.1292 34.863C50.3623 34.4603 51.4766 33.7579 52.3728 32.8185C52.8314 32.3547 53.2605 31.8699 53.6685 31.3683C53.6286 31.6687 53.6202 31.9725 53.6433 32.2746C53.6471 32.4503 53.6933 32.6224 53.7779 32.7763C53.8857 32.9382 54.044 33.0597 54.2281 33.122C54.5023 33.1908 54.7926 33.1484 55.0358 33.0039C55.5533 32.751 56.483 31.0943 56.6092 30.8961L57.8713 28.8305L59.0703 26.9039C60.0884 25.2767 61.1948 23.5357 62.3896 21.6808C63.5844 19.8259 64.8143 17.9893 66.0792 16.171C67.3441 14.3498 68.494 12.8041 69.5289 11.5338C69.1755 12.672 68.759 13.9325 68.2878 15.3278C67.8166 16.7232 67.3749 18.0933 66.9626 19.4845C66.5503 20.8756 66.2138 22.2077 65.9487 23.4809C65.7 24.5625 65.5953 25.6725 65.6374 26.7817C65.6305 27.1554 65.6972 27.5269 65.8336 27.8748C65.9701 28.2227 66.1736 28.5403 66.4325 28.8094C66.9037 29.231 67.6946 29.2858 68.7758 28.9654C70.1249 28.5392 71.3632 27.8194 72.4022 26.8576C73.5904 25.8112 74.6778 24.6553 75.65 23.405C76.5889 22.2082 77.4328 20.9396 78.1742 19.6109C78.7597 18.6063 79.2634 17.556 79.6803 16.4703C79.9229 15.8901 79.9987 15.2534 79.8991 14.6323" fill="#231F20"/>
</g>
<defs>
<clipPath id="clip0">
<rect width="80" height="54.1538" fill="white"/>
</clipPath>
</defs>
</svg>
