<svg xmlns="http://www.w3.org/2000/svg" width="25" height="25" viewBox="0 0 25 25"><g><g><g/><g><path d="M17.424 2.659a4.937 4.937 0 0 1 4.922 4.922v9.843a4.937 4.937 0 0 1-4.922 4.922H7.581a4.937 4.937 0 0 1-4.922-4.922V7.581A4.937 4.937 0 0 1 7.58 2.659zM7.581.69C3.79.69.69 3.79.69 7.58v9.844c0 3.79 3.1 6.891 6.89 6.891h9.844c3.79 0 6.891-3.1 6.891-6.89V7.58c0-3.79-3.1-6.891-6.89-6.891z"/></g><g><path d="M19.46 7.472a1.473 1.473 0 0 0 .662-2.186 1.476 1.476 0 1 0-.662 2.186zm-6.964 1.095a3.938 3.938 0 1 1 0 7.875 3.938 3.938 0 0 1 0-7.875zm0-1.968a5.906 5.906 0 1 0 0 11.812 5.906 5.906 0 0 0 0-11.812z"/></g></g></g></svg>