<svg xmlns="http://www.w3.org/2000/svg" width="78" height="78" viewBox="0 0 78 78"><defs><mask id="bgplb" width="2" height="2" x="-1" y="-1"><path fill="#fff" d="M14 14h40v40H14z"/><path d="M54 34c0 11.046-8.954 20-20 20s-20-8.954-20-20 8.954-20 20-20 20 8.954 20 20z"/></mask><filter id="bgpla" width="115" height="115" x="-21" y="-21" filterUnits="userSpaceOnUse"><feOffset dx="5" dy="5" in="SourceGraphic" result="FeOffset1073Out"/><feGaussianBlur in="FeOffset1073Out" result="FeGaussianBlur1074Out" stdDeviation="10 10"/></filter></defs><g><g><g><g filter="url(#bgpla)"><path fill="none" d="M54 34c0 11.046-8.954 20-20 20s-20-8.954-20-20 8.954-20 20-20 20 8.954 20 20z" mask="url(&quot;#bgplb&quot;)"/><path fill-opacity=".15" d="M54 34c0 11.046-8.954 20-20 20s-20-8.954-20-20 8.954-20 20-20 20 8.954 20 20z"/></g><path fill="#fff" d="M54 34c0 11.046-8.954 20-20 20s-20-8.954-20-20 8.954-20 20-20 20 8.954 20 20z"/></g><g><g/></g></g></g></svg>