<svg xmlns="http://www.w3.org/2000/svg" width="160" height="25" viewBox="0 0 160 25"><g><g><g><path fill="#ff4612" d="M12.8 0l3.955 8.013L25.6 9.306l-6.4 6.233 1.51 8.807-7.91-4.16-7.91 4.16 1.51-8.807L0 9.306l8.845-1.293z"/></g><g><path fill="#ff4612" d="M46.4 0l3.955 8.013L59.2 9.306l-6.4 6.233 1.51 8.807-7.91-4.16-7.91 4.16L40 15.539l-6.4-6.233 8.845-1.293z"/></g><g><path fill="#ff4612" d="M80 0l3.955 8.013L92.8 9.306l-6.4 6.233 1.51 8.807-7.91-4.16-7.91 4.16 1.51-8.807-6.4-6.233 8.845-1.293z"/></g><g><path fill="#ff4612" d="M113.6 0l3.955 8.013 8.845 1.293-6.4 6.233 1.51 8.807-7.91-4.16-7.91 4.16 1.51-8.807-6.4-6.233 8.845-1.293z"/></g><g><path fill="#ff4612" d="M147.2 0l3.955 8.013L160 9.306l-6.4 6.233 1.51 8.807-7.91-4.16-7.91 4.16 1.51-8.807-6.4-6.233 8.845-1.293z"/></g></g></g></svg>