<svg width="36" height="29" viewBox="0 0 36 29" fill="none" xmlns="http://www.w3.org/2000/svg">
<path d="M36 3.41251C34.6496 3.99928 33.2208 4.38585 31.7588 4.56001C33.2953 3.6603 34.4507 2.23094 35.0085 0.540012C33.5558 1.38946 31.9692 1.98547 30.3165 2.30251C29.6206 1.57316 28.7836 0.992941 27.8565 0.597121C26.9293 0.201302 25.9314 -0.0018505 24.9233 1.27008e-05C20.8418 1.27008e-05 17.5388 3.25501 17.5388 7.26751C17.5359 7.82564 17.5998 8.3821 17.7292 8.92501C14.8025 8.78781 11.9366 8.0412 9.31499 6.73295C6.69333 5.42471 4.37361 3.58363 2.50425 1.32751C1.84843 2.4331 1.5016 3.69454 1.5 4.98001C1.5 7.50001 2.81475 9.72751 4.8 11.0325C3.6238 11.0046 2.47169 10.6933 1.4415 10.125V10.215C1.4415 13.74 3.9915 16.6725 7.3665 17.34C6.73184 17.5092 6.07783 17.5949 5.421 17.595C4.95493 17.5958 4.48993 17.5506 4.03275 17.46C4.971 20.3475 7.70175 22.4475 10.9365 22.5075C8.30803 24.5332 5.08096 25.6281 1.7625 25.62C1.17346 25.6191 0.584974 25.5841 0 25.515C3.37588 27.6707 7.30008 28.8109 11.3055 28.8C24.9075 28.8 32.3385 17.7225 32.3385 8.11501C32.3385 7.80001 32.3302 7.48501 32.3153 7.17751C33.7576 6.15156 35.0054 4.8766 36 3.41251Z" fill="white"/>
</svg>
