<svg xmlns="http://www.w3.org/2000/svg" width="27" height="22" viewBox="0 0 27 22"><g><g><path d="M27 2.607a11.19 11.19 0 0 1-3.18.876 5.568 5.568 0 0 0 2.436-3.07 10.999 10.999 0 0 1-3.519 1.346c-.522-.557-1.15-1-1.845-1.303a5.489 5.489 0 0 0-2.2-.456c-3.06 0-5.538 2.486-5.538 5.552-.002.426.046.851.143 1.266a15.563 15.563 0 0 1-6.31-1.675 15.84 15.84 0 0 1-5.109-4.129 5.56 5.56 0 0 0-.753 2.79c0 1.925.986 3.627 2.475 4.624a5.408 5.408 0 0 1-2.519-.694v.07a5.551 5.551 0 0 0 4.444 5.442c-.476.129-.967.194-1.46.195-.349 0-.698-.034-1.04-.104a5.549 5.549 0 0 0 5.177 3.856A11.096 11.096 0 0 1 0 19.491 15.467 15.467 0 0 0 8.48 22c10.2 0 15.774-8.462 15.774-15.801 0-.24-.006-.481-.018-.716A11.276 11.276 0 0 0 27 2.607z"/></g></g></svg>