<svg xmlns="http://www.w3.org/2000/svg" width="136" height="42" viewBox="0 0 136 42"><g><g opacity=".3" transform="rotate(-135 72.85 26.85)"><g opacity=".3"/><g opacity=".3"><g opacity=".3"><path fill="#fff" d="M123.113-21.962c-7.369 50.436-52.622 74.934-99.865 80.504a1.483 1.483 0 0 0-1.297 1.645 1.483 1.483 0 0 0 1.644 1.297c48.567-5.723 94.875-31.17 102.449-83.02a1.48 1.48 0 1 0-2.931-.426z"/></g><g opacity=".3"><path fill="#fff" d="M24.31 59.911c2.1-1.536 4.759-3.436 5.054-3.66C37.368 50.172 44 43.178 49.839 34.971a1.484 1.484 0 0 0-.347-2.066 1.484 1.484 0 0 0-2.068.347c-5.66 7.96-12.09 14.745-19.855 20.64-.452.344-6.43 4.61-7.574 5.563-.47.389-.616.755-.643.845-.157.47-.063.841.064 1.11.146.303.508.744 1.211.968.737.232 2.374.337 2.785.397 6.202.92 13.204 1.405 19.579 3.17 6.078 1.682 11.592 4.53 15.129 10.24.43.695 1.346.908 2.041.478.695-.43.909-1.346.479-2.041-3.956-6.382-10.064-9.653-16.857-11.533-6.337-1.754-13.275-2.285-19.474-3.178z"/></g></g></g></g></svg>