<svg xmlns="http://www.w3.org/2000/svg" width="36" height="34" viewBox="0 0 36 34"><g><g><g/><g><path fill="#00a7e1" d="M35.46 10.057c.35.6.536 1.281.54 1.975v15.412c0 2.187-1.772 3.967-3.944 3.967h-.597a.838.838 0 0 1-.84-.84V18.593a.383.383 0 0 0-.371-.39H5.838a.395.395 0 0 0-.39.39V30.57a.841.841 0 0 1-.839.84h-.665C1.77 31.41 0 29.63 0 27.443V12.032a3.953 3.953 0 0 1 .522-1.975l1.177-2.016a3.26 3.26 0 0 1 2.805-1.628h.358a.839.839 0 0 1 .84.84.841.841 0 0 1-.84.841h-.358a1.571 1.571 0 0 0-1.354.791l-1.175 2.013a2.224 2.224 0 0 0-.254.686h32.552a2.358 2.358 0 0 0-.266-.687l-1.16-2.015a1.576 1.576 0 0 0-1.354-.79h-.46a.839.839 0 0 1-.84-.841.841.841 0 0 1 .84-.841h.46A3.255 3.255 0 0 1 34.3 8.042l1.16 2.015zm-3.162 19.66a2.278 2.278 0 0 0 2.023-2.274V13.265H1.678v14.178a2.283 2.283 0 0 0 2.091 2.279V18.59a2.074 2.074 0 0 1 2.068-2.07h24.41a2.06 2.06 0 0 1 2.05 2.07z"/></g><g><path fill="#00a7e1" d="M29.949 31.752l-1.91-10.832a.841.841 0 0 0-.973-.682.839.839 0 0 0-.681.974l1.91 10.832v.013a.05.05 0 0 1-.026.009H7.799a.072.072 0 0 1-.01-.01v-.012l1.894-10.832a.842.842 0 0 0-1.01-.971.839.839 0 0 0-.643.682L6.136 31.75a1.699 1.699 0 0 0 1.663 1.993h20.47a1.726 1.726 0 0 0 1.311-.608 1.693 1.693 0 0 0 .368-1.385z"/></g><g><path fill="#00a7e1" d="M9.94 28.812a.693.693 0 0 0 .691.692h5.7a.69.69 0 0 0 .489-1.181.69.69 0 0 0-.489-.203h-5.7a.69.69 0 0 0-.691.692z"/></g><g><path fill="#00a7e1" d="M19.751 29.504h5.68a.69.69 0 0 0 .49-1.181.69.69 0 0 0-.49-.203h-5.68a.69.69 0 0 0-.489 1.182.69.69 0 0 0 .49.202z"/></g><g><path fill="#00a7e1" d="M16.331 25.214a.69.69 0 0 0 .489-1.181.69.69 0 0 0-.489-.203h-4.93a.69.69 0 0 0-.489 1.182.69.69 0 0 0 .49.202z"/></g><g><path fill="#00a7e1" d="M19.751 25.214h4.93a.69.69 0 0 0 .489-1.181.69.69 0 0 0-.489-.203h-4.93a.69.69 0 0 0-.489 1.182.69.69 0 0 0 .49.202z"/></g><g><path fill="#00a7e1" d="M3.356 13.84a.934.934 0 0 0-.918 1.12.937.937 0 0 0 1.276.683.936.936 0 0 0-.358-1.803z"/></g><g><path fill="#00a7e1" d="M7.1 9.832a.839.839 0 0 1-.84-.84V1.695A1.698 1.698 0 0 1 7.953 0h19.975a1.701 1.701 0 0 1 1.709 1.695v7.297a.841.841 0 0 1-.84.84H7.1zm.839-1.68h20.02V1.693a.038.038 0 0 0-.031-.013H7.952c-.013 0-.013.002-.013.014z"/></g></g></g></svg>