<svg width="24" height="24" viewBox="0 0 24 24" fill="none" xmlns="http://www.w3.org/2000/svg">
<path d="M4.23175 14.364L6.25759 16.3908" stroke="#00A7E1" stroke-width="1.5" stroke-linecap="round" stroke-linejoin="round"/>
<path d="M10.3113 8.28445L12.3381 10.3113" stroke="#00A7E1" stroke-width="1.5" stroke-linecap="round" stroke-linejoin="round"/>
<path d="M6.2576 12.3381L7.60916 13.6887" stroke="#00A7E1" stroke-width="1.5" stroke-linecap="round" stroke-linejoin="round"/>
<path d="M8.28445 10.3113L9.63602 11.6619" stroke="#00A7E1" stroke-width="1.5" stroke-linecap="round" stroke-linejoin="round"/>
<path d="M12.3381 6.25761L13.6887 7.60917" stroke="#00A7E1" stroke-width="1.5" stroke-linecap="round" stroke-linejoin="round"/>
<path d="M14.364 4.23176L15.7155 5.58232" stroke="#00A7E1" stroke-width="1.5" stroke-linecap="round" stroke-linejoin="round"/>
<path fill-rule="evenodd" clip-rule="evenodd" d="M3.55474 17.7414C2.80883 16.9955 2.80884 15.7862 3.55474 15.0403L15.0398 3.55519C15.7857 2.80928 16.9951 2.80929 17.741 3.55519L20.4444 6.25859C21.1903 7.00449 21.1903 8.21383 20.4444 8.95973L8.95928 20.4448C8.21338 21.1907 7.00404 21.1907 6.25814 20.4448L3.55474 17.7414Z" stroke="#00A7E1" stroke-width="1.5" stroke-linecap="round" stroke-linejoin="round"/>
</svg>
