<svg xmlns="http://www.w3.org/2000/svg" width="36" height="37" viewBox="0 0 36 37"><g><g><g/><g><path fill="#00a7e1" d="M27.747 11.92a1.858 1.858 0 0 1 1.855 1.861v21.433a1.865 1.865 0 0 1-1.855 1.862H1.875A1.867 1.867 0 0 1 0 35.214V13.78a1.874 1.874 0 0 1 1.875-1.859zm.103 1.861a.101.101 0 0 0-.03-.074.1.1 0 0 0-.073-.029H1.875a.115.115 0 0 0-.123.103v21.43a.115.115 0 0 0 .123.106h25.872a.099.099 0 0 0 .096-.065.101.101 0 0 0 .007-.04z"/></g><g><path fill="#00a7e1" d="M34.128 0H8.255A1.866 1.866 0 0 0 6.4 1.878v8.342a.879.879 0 0 0 .876.877.875.875 0 0 0 .876-.877V1.878a.115.115 0 0 1 .103-.123h25.873a.129.129 0 0 1 .122.123v21.414a.128.128 0 0 1-.122.123H31.3a.875.875 0 0 0-.876.877.878.878 0 0 0 .876.878h2.827a1.875 1.875 0 0 0 1.874-1.878V1.878A1.882 1.882 0 0 0 34.128 0z"/></g><g><path fill="#00a7e1" d="M10.286 19.32a2.158 2.158 0 0 1-1.044-2.088 2.133 2.133 0 0 1 1.512-1.813 2.122 2.122 0 0 1 2.252.7 2.133 2.133 0 0 1 2.12-1.04 2.13 2.13 0 0 1 1.777 1.556 2.166 2.166 0 0 1-.71 2.226 2.135 2.135 0 0 1 1.037 2.124 2.138 2.138 0 0 1-2.115 1.857 2.109 2.109 0 0 1-1.643-.79 2.118 2.118 0 0 1-2.075 1.047 2.13 2.13 0 0 1-1.81-1.519 2.14 2.14 0 0 1 .699-2.26zm1.734-1.447a1.732 1.732 0 0 0 .56 2.82 1.722 1.722 0 0 0 2.352-1.261 1.732 1.732 0 0 0-.734-1.775 1.723 1.723 0 0 0-2.178.216z"/></g><g><path fill="#00a7e1" d="M23.8 22.624c-.222-.224-1.015-.203-1.422-.203-.524 0-.72-.003-1.437.052-.228.017-.453.062-.68.093l-.016.003c-.413.088-.829.169-1.241.263-.064.014-.547.16-.602.191-.37.21-.736.43-1.082.678-.326.234-.829 1.332-.839 1.35-.058.113-.1.233-.15.35v.009l-.002.012v.022c.001.004.004.007.006.011l.004.008.015.01c.01.007.01.009.028.009.007 0 .014-.002.02-.004.003 0 .005-.003.007-.004l.01-.006c.867-.343 3.189-1.75 2.6-1.026-.963 1.185-2.527 1.719-3.822 2.53-.035.021-.022-.08-.032-.119a5.855 5.855 0 0 1-.03-.126l-.034-.147c-.012-.053-.053-.167-.061-.192a7.539 7.539 0 0 1-.047-.155l-.052-.18-.007-.025c-.021-.067-.045-.132-.066-.199l-.065-.21-.066-.234a.64.64 0 0 0-.02-.054c-.01-.029-.026-.056-.036-.085-.01-.033-.016-.067-.024-.1a.672.672 0 0 0-.016-.051c-.015-.043-.033-.085-.048-.128-.05-.147-.099-.295-.147-.443l-.052-.162-.008-.026c-.02-.058-.043-.115-.063-.174-.017-.05-.031-.103-.047-.155a.602.602 0 0 0-.009-.025l-.065-.18c-.046-.134-.065-.278-.133-.402-.125-.224-.304-.378-.584-.285-.28.094-.331.325-.296.58.02.141.09.27.135.406a.463.463 0 0 0 .004.012c.021.058.044.116.064.174.017.051.03.104.046.155a.553.553 0 0 0 .009.025l.063.174c.017.052.031.104.047.155a535.418 535.418 0 0 0 .159.47c.016.048.024.056.047.128.01.036.017.074.027.11a.809.809 0 0 0 .024.07c.012.031.028.06.039.092.022.068.04.138.06.207l.002.009.068.22.003.01c.021.064.044.127.064.191.017.058.031.117.047.175l.004.01.051.17.004.014c.014.043.031.086.043.13.012.042.02.086.03.13 0 .003-.002.007 0 .01.01.046.023.09.033.136v.007c.021.08.047.16.065.24.036.164.065.328.098.492.033.168.073.335.097.504.024.167.033.336.048.504v.016c.024.186.044.277.047.463.004.219.201.744 0 .657-1.33-.578-2.797-1.142-3.71-2.268-.596-.736 1.779.653 2.667.981.007.002.013.007.019.01H13.618l.02-.007c.013-.007.013-.01.018-.019l.007-.014v-.011-.012l-.005-.014V28.6c-.044-.084-.086-.17-.135-.25-.203-.34-.3-.782-.622-1.012-2.342-1.67-2.67-1.38-5.274-1.584-.012-.001-.025-.004-.037 0-1.325.5-2.723.258-2.04 1.835.343.79 1.518 2.275 2.31 2.665.673.33 1.451.38 2.185.532.146.03.3.038.447.016.679-.103 1.363-.201 2.023-.39.288-.083.522-.54.797-.418.531.233.784.855 1.174 1.284v.005c-.032.168-.061.337-.097.504-.035.166-.076.33-.116.496-.083.338-.202.67-.253 1.014a.544.544 0 0 0 .053.352c.03.05.259.255.398.226.098-.021.205-.037.285-.099a.532.532 0 0 0 .164-.254c.11-.332.17-.678.254-1.017v-.007l.118-.509.004-.017.103-.525.004-.028.01-.077.028-.21.064-.475a98.934 98.934 0 0 0 .037-.558v-.03-.78-.03a23.181 23.181 0 0 0-.02-.285c-.01-.082-.024-.164-.033-.246-.019-.172-.035-.344-.051-.517 0-.005-.004-.011 0-.015.375-.448.592-1.116 1.133-1.337.338-.138.64.365.99.468.461.136.947.172 1.424.24.08.011.162.002.243-.003 1.067-.076 1.99-.08 2.946-.772.588-.425.977-1.075 1.424-1.647.096-.123.595-1.138.59-1.246-.022-.444-.074-.96-.387-1.275z"/></g></g></g></svg>